# xmcd CD database file
#
# Track frame offsets:
#	150
#	18756
#	35107
#	49188
#	68914
#	88515
#	106875
#	130334
#	150902
#	171033
#
# Disc length: 2515 seconds
#
# Revision: 0
# Processed by: cddbd v1.5.1PL2 Copyright (c) Steve Scherf et al.
# Submitted via: CDex 1.50Beta7
#
DISCID=7609d10a
DTITLE=鄭怡 - 去吧,我的愛
DYEAR=1984
DGENRE=Country
TTITLE0=午夜以後
TTITLE1=請聽我說
TTITLE2=去吧,我的愛
TTITLE3=牛郎'女
TTITLE4=期許
TTITLE5=緣淺
TTITLE6=我們的愛
TTITLE7=暖暖的感覺
TTITLE8=離開我的方法
TTITLE9=午夜之後(演奏曲)
EXTD=YEAR: 1984
EXTT0=
EXTT1=
EXTT2=
EXTT3=
EXTT4=
EXTT5=
EXTT6=
EXTT7=
EXTT8=
EXTT9=
PLAYORDER=
